<?xml version="1.0" standalone="no"?>
<!DOCTYPE svg PUBLIC "-//W3C//DTD SVG 20010904//EN"
 "http://www.w3.org/TR/2001/REC-SVG-20010904/DTD/svg10.dtd">
<svg version="1.0" xmlns="http://www.w3.org/2000/svg"
 width="211.000000pt" height="211.000000pt" viewBox="0 0 211.000000 211.000000"
 preserveAspectRatio="xMidYMid meet">
<metadata>
Created by potrace 1.14, written by Peter Selinger 2001-2017
</metadata>
<g transform="translate(0.000000,211.000000) scale(0.100000,-0.100000)"
fill="#000000" stroke="none">
<path d="M970 1998 c-412 -32 -741 -303 -856 -703 -22 -74 -29 -138 -29 -255
0 -131 9 -193 40 -286 83 -247 239 -437 456 -553 162 -87 306 -122 484 -116
265 8 473 99 660 289 190 193 280 424 270 696 -4 133 -8 157 -42 265 -110 353
-446 629 -807 661 -39 3 -73 7 -76 8 -3 1 -48 -1 -100 -6z"/>
</g>
</svg>
